<svg width="286" height="40" viewBox="0 0 286 40" fill="none" xmlns="http://www.w3.org/2000/svg"><path d="M93.43 14.466h5.387v.162l-1.844 1.607a167.526 167.526 0 0 0-.086 7.454c0 2.302.086 4.45.204 6.447h-2.144a.719.719 0 0 0-.207-.446 12.25 12.25 0 0 1-.431-.53l-9.277-11.558c0 3.546.056 7.099.172 10.745l2.023 1.497v.21h-5.36v-.21l1.836-1.497c.169-3.14.169-7.17 0-12.168l-2.198-1.55v-.163h4.672c.34.562.725 1.094 1.152 1.594.536.722 1.217 1.553 2.056 2.538.839.986 1.74 2.125 2.777 3.434 1.037 1.309 2.208 2.746 3.5 4.408 0-1.941-.019-3.739-.027-5.446-.008-1.708-.059-3.29-.075-4.748l-2.12-1.607-.01-.173zm14.741 1.426l1.804-1.261v-.16h-6.323v.16l1.817 1.261c.022 4.164.022 8.352 0 12.614l-1.876 1.299v.193h6.468v-.194l-1.877-1.298c-.08-4.066-.08-8.232 0-12.614h-.013zm17.781 12.779c-2.23.092-4.363.092-6.398 0-.037-2.05-.037-4.086 0-6.108a178.4 178.4 0 0 1 4.927-.053l1.208 1.771h.175v-4.809h-.175l-1.208 1.808c-2.777 0-4.447-.029-4.964-.06-.024-.88-.059-1.77-.059-2.656 0-.887 0-1.774.035-2.738.975-.074 2.037-.088 3.077-.088 1.039 0 2.144.014 3.294.014l1.316 1.795h.174v-3.08h-12.287v.161l1.794 1.264c.042 3.62.042 7.802 0 12.617l-1.788 1.293v.196h12.597v-3.452h-.177l-1.541 2.125zM71.749 14.628l2.085 1.607c.019 1.458.045 3.032.062 4.748.016 1.715.032 3.505.032 5.446-1.247-1.662-2.412-3.107-3.458-4.408a156.764 156.764 0 0 0-2.828-3.433c-.817-.959-1.468-1.817-2.018-2.539a14.788 14.788 0 0 1-1.158-1.593h-4.66v.162l2.178 1.572c.172 4.984.172 9.028 0 12.167l-1.809 1.498v.21h5.36v-.21l-2.023-1.498c-.115-3.646-.198-7.199-.198-10.744l9.29 11.567c.149.169.288.346.415.532.123.12.201.276.223.446h2.144a86.424 86.424 0 0 1-.22-6.448c-.016-2.26 0-4.767.107-7.454l1.842-1.606v-.162h-5.361l-.005.14zM4.498 10.547l2.412 1.482.158 16.69c0 .684 0 1.26-.027 1.781a12.76 12.76 0 0 1-.15 1.397c-.077.41-.204.81-.378 1.19-.194.38-.433.737-.713 1.062a4.142 4.142 0 0 1-1.34 1.062 3.572 3.572 0 0 1-1.726.364.82.82 0 0 0 .172-.266c.055-.094.098-.195.128-.3.033-.139.048-.282.046-.425a1.007 1.007 0 0 0-.11-.464 2.285 2.285 0 0 0-.322-.481 1.878 1.878 0 0 0-.485-.308 1.31 1.31 0 0 0-.582-.146 1.593 1.593 0 0 0-1.085.449c-.154.139-.272.313-.343.507-.1.198-.153.416-.153.637a1.64 1.64 0 0 0 .252.89c.162.25.38.462.635.618.262.155.546.27.842.343.292.083.594.125.898.125a5.569 5.569 0 0 0 1.763-.295 6.403 6.403 0 0 0 1.558-.797c.495-.355.95-.764 1.356-1.218a8.315 8.315 0 0 0 1.059-1.594c.268-.494.514-.972.731-1.442a6.6 6.6 0 0 0 .571-1.516c.17-.573.292-1.16.365-1.752.086-.718.12-1.442.099-2.165-.016-.852-.035-1.705-.051-2.6-.016-.894-.024-1.906-.048-3.03-.024-1.123-.032-2.347-.049-3.717-.016-1.37-.032-2.995-.032-4.78l2-1.285v-.18H4.498v.164zm25.73 14.839a9.337 9.337 0 0 0 .475-3.142 10.19 10.19 0 0 0-.389-2.884 7.364 7.364 0 0 0-1.099-2.273 5.023 5.023 0 0 0-4.138-2.085 4.933 4.933 0 0 0-2.335.558 5.343 5.343 0 0 0-1.736 1.543 6.948 6.948 0 0 0-1.102 2.257c-.25.941-.374 1.911-.367 2.884a9.598 9.598 0 0 0 .445 3.04c.265.84.689 1.62 1.249 2.303a6.082 6.082 0 0 0 1.82 1.455 5.463 5.463 0 0 0 2.176.481 5.286 5.286 0 0 0 2.04-.444 6.2 6.2 0 0 0 1.74-1.444 6.884 6.884 0 0 0 1.227-2.25h-.006zm2.33-7.467c.395.63.704 1.31.919 2.02a8.492 8.492 0 0 1-.324 5.516 8.465 8.465 0 0 1-1.812 2.655 7.989 7.989 0 0 1-2.68 1.846c-1.043.544-2.164.65-3.372.65-1.21 0-2.33-.106-3.378-.626a8.942 8.942 0 0 1-2.76-1.84 8.082 8.082 0 0 1-1.877-2.656 7.678 7.678 0 0 1-.68-3.24c.007-1.67.514-3.3 1.457-4.684a8.51 8.51 0 0 1 3.836-3.094 8.917 8.917 0 0 1 3.485-.653 7.862 7.862 0 0 1 2.088.266c.688.182 1.348.46 1.959.823a7.05 7.05 0 0 1 1.718 1.328 6.406 6.406 0 0 1 1.41 1.67l.01.019zm16.296-3.31l1.803 1.28v5.312c-2.816.013-5.574.013-8.308 0V15.89l1.803-1.262v-.162h-6.271v.162l1.755 1.262v12.613l-1.755 1.302v.193h6.263v-.196L42.341 28.5v-6.044c2.744-.027 5.502-.027 8.308 0v6.046l-1.806 1.302v.193h6.266v-.196L53.332 28.5c-.05-3.95-.05-8.113 0-12.614l1.777-1.261v-.162h-6.255v.146zm142.371-4.036c.3.178.606.404.914.609.308.204.6.432.868.642-.568 2.048-1.125 3.872-1.581 5.553-.456 1.68-.9 3.062-1.254 4.278-.354 1.216-.636 2.177-.858 2.966a25.715 25.715 0 0 0-.407 1.593l-4.348-14.199c.303-.3.587-.576.855-.815.259-.22.533-.424.82-.608v-.183h-6.923v.204l1.742 1.328a176.834 176.834 0 0 0-1.324 4.27c-.394 1.328-.772 2.579-1.12 3.75-.348 1.17-.665 2.267-.968 3.277-.302 1.009-.565 1.98-.822 2.902l-4.123-14.164 1.689-1.384v-.183h-6.679v.183c.286.226.536.412.731.584.168.123.328.255.48.396.109.09.208.192.292.305.084.092.14.205.161.327.22.677.515 1.63.927 2.844.405 1.277.855 2.703 1.386 4.283.531 1.58 1.112 3.312 1.71 5.178a220.446 220.446 0 0 1 1.801 5.843h2.198a.665.665 0 0 1-.032-.213c-.001-.13.014-.26.046-.388.026-.12.072-.265.099-.4a1.55 1.55 0 0 0 .123-.37c.19-.688.391-1.42.598-2.217.206-.797.442-1.654.694-2.523.252-.868.536-1.776.764-2.7.228-.925.517-1.817.804-2.728.287-.91.501-1.747.766-2.58.226-.888.488-1.652.697-2.35l5.208 16.463h2.107c.08-.342.241-1 .522-1.994.282-.993.646-2.204 1.123-3.752a928.374 928.374 0 0 0 1.657-5.42c.63-2.085 1.34-4.514 2.109-7.104.445-.432.804-.743 1.097-1.009.292-.265.455-.425.573-.507v-.149h-5.122v.162zm15.372 12.521l-2.579-6.585-2.412 6.585h4.991zm5.146 5.191l1.806 1.565v.194h-6.899v-.194l2.021-1.503-1.63-4.1c-1.833-.02-3.798-.02-5.896 0l-1.498 4.1 1.986 1.503v.194h-5.299v-.194l1.822-1.503 5.436-14.173h2.254l5.897 14.111zm52.458.428a74.164 74.164 0 0 1-6.432 0 172.71 172.71 0 0 1 0-6.108c1.16-.031 2.79-.053 4.95-.053l1.22 1.774h.182v-4.811h-.182l-1.22 1.808c-2.817 0-4.449-.027-4.985-.061a96.773 96.773 0 0 1-.043-2.656c0-.892 0-1.774.019-2.738.967-.074 1.975-.087 3.044-.087h3.367l1.281 1.795h.172v-3.065h-12.303v.163l1.772 1.264c.061 3.619.061 7.799 0 12.613l-1.772 1.293v.202h12.613v-3.452h-.185l-1.498 2.12zm13.321-6.543c1.34 0 2.37-.266 3.069-.874.7-.608 1.072-1.418 1.072-2.504a3.103 3.103 0 0 0-.236-1.195 2.636 2.636 0 0 0-.68-.982 3.161 3.161 0 0 0-1.105-.712 3.803 3.803 0 0 0-1.428-.244h-.392c-.187 0-.38 0-.605.026-.225.027-.483 0-.732.021a8.657 8.657 0 0 1-.702.038l-.027 6.394c.142.017.286.023.429.019.134 0 .321 0 .506.016h.837l-.006-.003zm8.132 7.42c.102.104.218.194.346.265v.196h-3.578l-3.672-6.136a1.522 1.522 0 0 0-.536-.531 2.3 2.3 0 0 0-.772-.133h-.678c-.317 0-.649.029-1.024.047l.059 5.327 1.771 1.225v.196h-6.416v-.196l1.876-1.296V15.996l-1.772-1.328v-.156h7.296a9.324 9.324 0 0 1 2.546.3 6.195 6.195 0 0 1 1.962.868 4.65 4.65 0 0 1 1.257 1.36c.295.511.453 1.089.459 1.678a3.502 3.502 0 0 1-.4 1.593 3.86 3.86 0 0 1-1.072 1.243 5.178 5.178 0 0 1-1.608.847c-.665.21-1.356.33-2.053.358a3.16 3.16 0 0 1 1.34.436c.376.284.684.647.903 1.062l2.474 3.797c.113.17.242.327.386.47.145.186.3.415.464.611.163.146.332.311.469.452l-.027.002zm-44.937-8.546a311.908 311.908 0 0 1 3.484-3.234 87.915 87.915 0 0 1 2.163-1.91l2.367-1.23v-.153h-5.281v.154l.805 1.206c-.55.594-1.126 1.128-1.676 1.68-.549.553-1.133 1.05-1.691 1.562-.557.512-1.072 1.004-1.587 1.455-.514.451-1.002.9-1.468 1.256 1.814 1.8 3.883 4.044 6.296 6.795l-.681 1.222v.194h5.703v-.194l-1.214-1.222c-3.388-3.452-5.786-5.95-7.237-7.581h.017zm-2.874-5.107l1.834-1.266v-.154h-6.374v.154l1.806 1.267c.027 4.187.027 8.359 0 12.613l-1.876 1.296v.197h6.47v-.197l-1.876-1.296a982.039 982.039 0 0 1 0-12.613h.016zm-10.246 12.707h-3.118c-.991 0-1.876-.016-2.68-.016a497.084 497.084 0 0 1 0-12.69l1.984-1.235v-.178h-6.522v.178l1.788 1.235c.059 4.187.059 8.348 0 12.613l-1.788 1.296v.197h12.021v-3.469h-.233l-1.452 2.069zm-87.992-3.92c-.284-.236-.536-.762-.536-1.484a5.156 5.156 0 0 1 1.944-3.802c1.511-1.124 2.9-1.177 3.339-1.328-.898.021-1.415-.531-1.34-.88.019-.092.311.19.804.216.662.032 1.15-.197 1.949-.722.228-.152.324-.048.295.154.51-.584.836-1.303.938-2.069.244.4.951.6 1.388.698.308.07 1.525.324 1.734.324-.104-.066-1.128-.448-1.608-.621a7.524 7.524 0 0 1-.681-.266 2.09 2.09 0 0 1-.453-.252.956.956 0 0 1-.099-.085c-.04-.037-.086-.08-.129-.125a12.436 12.436 0 0 1-1.608-2.464 7.133 7.133 0 0 1-.753-2.27 2.861 2.861 0 0 1-.059-.497 2.778 2.778 0 0 1 .027-.576.858.858 0 0 1 .121-.316.734.734 0 0 1 .107-.149c.093-.107.205-.197.329-.265a.242.242 0 0 1 .094-.024c.097 0-.174.265-.268.783-.179.879.577 1.593.828 1.859 1.016 1.078 1.609 1.351 2.107 2.055.086.122 0 .144-.139.144h-.062c-.249-.03-.581-.186-.466-.035a1.233 1.233 0 0 0 .857.462l.11.021c.123.021.244.052.362.09.062.024.115.043.174.07l.124.063a.65.65 0 0 1 .147.09c.03.027.016.051-.091.051h-.273c-.148.013-.309.03-.437.032a2.743 2.743 0 0 1-.298 0 1.32 1.32 0 0 1-.332-.045c-.405-.112-.836-.308-.536-.05.035.031.067.06.102.087.19.19.443.31.713.335.1.006.201 0 .3-.019.096-.016.193-.04.348-.069.162-.03.326-.05.491-.061.31-.029.622-.013.927.048a.227.227 0 0 0 .097 0c.08-.027.026-.186-.177-.266a2.062 2.062 0 0 0-.298-.087.982.982 0 0 1-.536-.266l-.027-.026a.874.874 0 0 0-.104-.117.54.54 0 0 0-.182-.107l-.057-.023-.043-.024a.404.404 0 0 1-.12-.133 1.18 1.18 0 0 1-.062-.173 2.125 2.125 0 0 0-.115-.308c-.394-.666-.662-1.367-1.225-2.026-.299-.286-.58-.59-.842-.91-.096-.179-.193-.612-.075-.627.236-.032.925 1.242 1.04 1.343.062.05-.059-.385-.134-.634a3.563 3.563 0 0 0-.23-.532 2.012 2.012 0 0 0-.536-.645 3.906 3.906 0 0 0-.443-.265c-.08-.05.035-.16.453.071.284.157.413.173.459.146a1.49 1.49 0 0 0-.804-.49c-.121-.054.434-.309 1.029-.248.489.062.974.15 1.453.266.252.055.029-.18-.18-.322a8.511 8.511 0 0 0-.788-.385c-.043-.053.536-.037.858 0 .209.032.083-.098-.185-.199-.228-.087-.501-.085-.437-.14a.774.774 0 0 0 .394-.465c.078-.311 0-.396.04-.452.04-.056.424.372 1.094 1.16a11.985 11.985 0 0 1 1.704 2.72c.511 1.128.834 2.33.957 3.56 0 0 .03.083.105-.065.335-.569.603-1.86.756-2.68a1.098 1.098 0 0 0-.191-.76.472.472 0 0 0-.032-.047c-.209-.266-.046-.55-.021-.876.024-.327-.236-.399-.322-.55-.15-.266-.105-.356-.105-.356.059 0 .226-.026.569-.042a1.27 1.27 0 0 1 .823.241c.168.144.369.603.86.571a.918.918 0 0 1 .724.356.957.957 0 0 0 .34.292.537.537 0 0 0-.145.396c.016.134.072.26.161.36.046.06.086.08.099 0a.266.266 0 0 0 0-.068 1.582 1.582 0 0 1 0-.218c.022-.236.121-.265.185-.223.034.032.06.07.075.114.022.04.043.085.067.125a1.353 1.353 0 0 0 .228.3c.244.22.532.385.844.489.075.021.108 0 .065-.027-.507-.356-.611-.414-.737-.595a2.64 2.64 0 0 1-.134-.207c-.03-.053-.084-.178-.159-.321a.405.405 0 0 0 .188-.085c.056-.04.064-.072.032-.093a.465.465 0 0 0-.236-.016.477.477 0 0 1-.123 0h-.037a.474.474 0 0 1-.092-.016h-.043c-.219-.17-.372-.125-.466-.265-.094-.141.105-.064.244-.157s-.172-.454-.268-.295c-.142.234-.198-.034-.185-.188a.757.757 0 0 0-.054-.433l-.013-.027c-.019-.056.08-.106.129-.125.048-.018.064 0 .088.032a.682.682 0 0 0 .174.154H155.524a.497.497 0 0 0 .11.027h.032c.052.004.105.004.158 0a.282.282 0 0 0 .099-.024l.078-.035a.325.325 0 0 0 .102-.085c.013-.029.045-.093-.019-.122a.271.271 0 0 0-.094 0c-.07.004-.141.004-.212 0h-.037a.14.14 0 0 1-.075-.034l-.065-.101a.673.673 0 0 0-.077-.085 2.116 2.116 0 0 0-.472-.303 3.009 3.009 0 0 1-.536-.332.761.761 0 0 1-.19-.305c-.065-.144-.116-.287-.185-.406-.07-.12-.188-.2-.113-.25.075-.05.268 0 .367.098.038.046.072.095.102.146h.027c.013-.092.02-.185.021-.279a.879.879 0 0 1 .129-.353c.016 0 0 .093-.027.191 0 .035 0 .067-.019.096a.199.199 0 0 0 0 .035.545.545 0 0 0 0 .114c.038.178.078.488.086.53.008.043.046.118.126.104.081-.013.182-.159.182-.159a.085.085 0 0 0 .081.058.101.101 0 0 0 .072-.031.402.402 0 0 0 .073-.165v-.082c0-.024.037-.032.048-.056l.032-.077a.241.241 0 0 0 0-.14.185.185 0 0 0-.029-.051c-.073-.083-.129-.024-.129-.024a.435.435 0 0 0 0-.215c-.024-.099-.15-.064-.15-.064a.371.371 0 0 0 0-.175c-.019-.099-.054-.162-.137-.157a.379.379 0 0 0-.086.021v-.016c.057-.087.477-.069.558-.063a.225.225 0 0 1 .212.159c.024.061.05.12.072.162h-.22c-.032 0 .032.04.18.056h.096a.264.264 0 0 1 .169.151c.048.211.113.418.196.619.045.1.096.196.152.29a.579.579 0 0 1 .14.204c.013.037.029.087.051.159.021.072.067.133.107.149l.075.026a.114.114 0 0 1 .058.03.113.113 0 0 1 .03.058v.013c0 .013.001.027.014.04.027.061.056.072.099.066a.338.338 0 0 1 .118-.016c.252.027.247.176.268.378 0 .023 0 .058.024.095.138.328.327.633.56.903.536.619 1.139 1.54 1.072 1.925-.037.231-.495.473-.715.55-.22.077-1.448.149-2.817-.05-.74-.084-1.47-.23-2.185-.436-.07.676-.182 1.347-.335 2.01-.139.531-.402 1.357-.487 1.729a.956.956 0 0 1-.1-.027l-.139-.047-.346-.11a4.252 4.252 0 0 0-.605-.122 6.074 6.074 0 0 0-.976-.055c-.201.005-.4.032-.595.08-.324.076-.215.212.351.265.325.025.653.015.976-.032a3.389 3.389 0 0 1 .965.08c.069.013.412.12.412.12l.14.036c.37.101.517.144.844.21.094.019.188.037.268.05l.212.025c.152.015.295.026.418.031.121.012.243.012.364 0a.19.19 0 0 1 .086 0c.032.016.027.048 0 .09a.538.538 0 0 1-.115.086l-.164.085-.185.095a2.8 2.8 0 0 0-.343.215 1.122 1.122 0 0 0-.372.956c.061.407.394.298.329.481a.266.266 0 0 1-.302.178 3.45 3.45 0 0 1-.456-.096c.027-.135.139-.207-.088-.382-.14-.109-.472-.13-.306.12.036.057.077.111.123.161 0 0 .016.016 0 .019h-.019l-.061-.021c-.405-.168-.418-.117-.536-.266a.43.43 0 0 1-.075-.146.394.394 0 0 0-.057-.122.106.106 0 0 0-.057-.05.11.11 0 0 0-.077.002.506.506 0 0 0-.093.075.339.339 0 0 1-.335.034.331.331 0 0 0-.078-.021c.035.021.367.178.635.303-.048.342-.161 1.062-.268 1.15-.185.159-.563-.649-.67-.89a.118.118 0 0 1 0-.027l-.038.075c-.021.04-.045.082-.072.124a3.13 3.13 0 0 1-.493.569 4.422 4.422 0 0 0-.844-.067c-1.638 0-3.485 1.028-4.184 1.27a2.664 2.664 0 0 0-.268.116 4.938 4.938 0 0 0 1.308-.265 28.24 28.24 0 0 0 1.088-.385l.163-.056-.11.122c-.361.385-.552.765-1.447 1.344a6.879 6.879 0 0 1-1.546.717c-.075.026-.153.045-.226.069-1.986.595-3.018.531-4.02 1.1-.622.345-.901.878-.834 1.38a1.434 1.434 0 0 1 .652-1.038 5.1 5.1 0 0 1 1.932-.67c-.876.6-2.533 1.806-2.388 3.355 0 .031-.013.045-.056 0l-.006.008zm11.453-11.957a.23.23 0 0 0-.118.109.228.228 0 0 0 .075.29.23.23 0 0 0 .156.039.23.23 0 0 0 .118-.109.224.224 0 0 0 .017-.158.231.231 0 0 0-.248-.17zm-.297-.88a.213.213 0 0 0 .128-.265.193.193 0 0 0-.175-.115.193.193 0 0 0-.106.029.193.193 0 0 0-.048.288.195.195 0 0 0 .201.064zm-2.198-3.103c-.027.071.895.66 1.678 1.46.268.266.482.558.552.635 0 0 .209.239-.019-.215a4.54 4.54 0 0 0-.718-.887c-.52-.531-.925-.863-.96-.916-.061-.104.333-.417.252-.441-.28.077-.545.2-.785.364zm1.774-2.449a.84.84 0 0 0-.163-.14c-.035 0-.485.265-.236.252h.013c.094-.016.231-.04.333-.053.029 0 .08-.019.053-.059zm2.064 3.452c.035-.225-.37-.201-.313-.047l.077.215a.184.184 0 0 0 .161-.025.178.178 0 0 0 .075-.143zm-3.985-7.331c0 .366.536.53.822.547.073 0 .209 0 .268.034.03.088-.048.207-.364.165a.362.362 0 0 0-.305.077.35.35 0 0 0-.124.287c-.024.371.142.637.118.815-.016.138-.118.143-.172.154a.265.265 0 0 0-.101.021c-.046.03.024.191.144.218.049.013.1.019.15.016.116 0 .156-.061.268-.064a.651.651 0 0 1 .207.056.968.968 0 0 1 .292.202c.07.082.118.223.164.233.045.011.192-.162.16-.186a.24.24 0 0 1-.203-.09c-.049-.082-.035-.21-.089-.348a1.125 1.125 0 0 1-.115-.348.354.354 0 0 1 .115-.283.372.372 0 0 1 .292-.096c.124.02.172.167.193.308a.136.136 0 0 0-.037-.042.148.148 0 0 0-.114-.027.12.12 0 0 0-.055.029c-.024.034.04.064.07.088.05.04.09.093.115.154a.921.921 0 0 1 .059.17c0 .05 0 .074.021.124.022.144.024.162.057.18.032.02.289.227.377.221.089-.005.116-.016.094-.04a.79.79 0 0 1-.091-.581c.023-.09.051-.18.086-.266.016-.045.091-.055.166-.047.07.006.137.026.198.06l.097.06c.045.03.088.063.083.09a.077.077 0 0 1-.019.037s-.018.05 0 .055c.03.027.061.052.094.075l.024.026a.163.163 0 0 1 .027.059c0 .042.019.055.083.093.141.051.292.072.442.06.02.003.04.003.059 0 .065 0 .228.017.268.06.039.147.047.302.022.453.005.119-.005.237-.03.353a.13.13 0 0 1-.131.088.572.572 0 0 0-.15 0c-.054 0-.081.093-.102.175a.269.269 0 0 1-.056.106.609.609 0 0 0-.062.056.265.265 0 0 0-.062.146.245.245 0 0 1-.037.114.658.658 0 0 0-.056.064.357.357 0 0 0-.07.266.27.27 0 0 1-.11.228.44.44 0 0 1-.458-.021 2.788 2.788 0 0 1-.212-.14s-.027-.017-.035 0c-.008.015.03.065.113.153a.952.952 0 0 0 .136.125c.405.265.767.239.831 0 .04-.167.233-.327.467-.661.233-.335.391-.383.562-.778.063-.212.1-.43.113-.65a1.555 1.555 0 0 1-.536-.312c-.12-.11-.229-.23-.327-.358-.17-.256-.357-.5-.56-.73a3.12 3.12 0 0 0-.359-.266c-.051-.037-.078-.072-.057-.088.022-.015.057 0 .153.03.387.136.727.378.981.698.169.215.22.366.378.555.115.146.264.263.434.34.336.148.709.196 1.072.138.252-.069.335-.146.319-.223a1.822 1.822 0 0 0 .18.167l.043.022c.056.02.115 0 .128.023a.09.09 0 0 1-.004.046.1.1 0 0 1-.025.04.482.482 0 0 0 .029.063c.019.045.191.061.191.061s.214.019.206 0c-.008-.018.016-.042-.161-.316a6 6 0 0 0-.56-.43c-.088-.064-.166 0-.15.096a.38.38 0 0 0 .056.148.995.995 0 0 0-.386-.151.99.99 0 0 1-.605-.266c-.038-.026-.033-.053-.033-.053.2-.34.43-.66.689-.958.292-.29.582-.486.641-.67.059-.183-.268-1.224-1.434-1.858-1.166-.635-2.008-.688-2.316-.608-.308.08-.351.23-.362.403-.016.29-.051.58-.107.866a2.558 2.558 0 0 0-.107.496c.019.075.06.143.118.194.061.077.622.531.737.707.115.175-.086.1-.198.018a4.253 4.253 0 0 0-.805-.425 3.026 3.026 0 0 0-1.053-.228c-.322 0-.721.143-.721.396h.014zm3.202 5.096c0 .045-.037.013-.061 0a.289.289 0 0 0-.134-.077c-.113-.02-.196.108-.333-.03-.268-.292-.6-.486-.632-.324a.744.744 0 0 0 0 .37c.064.318.137.613.137.613s.032.12.19.048c.102-.047.21-.079.322-.096.037 0 .077.064.131.106a.267.267 0 0 0 .268.053c.064-.026.123-.095.137-.087.155.074.498.345.402.066a.823.823 0 0 1 .024-.738c.053-.08.094-.173.037-.189a.899.899 0 0 0-.268.064.517.517 0 0 0-.217.149.114.114 0 0 0 0 .085l-.003-.013zm.711 3.226a.287.287 0 0 0 .23-.266c0-.212-.332-.143-.268 0a.505.505 0 0 1 .043.266h-.005zm2.509-4.81c0 .03.042-.034.067-.116.024-.082.053-.173.026-.17-.026.003-.035 0-.067.07a.595.595 0 0 0-.026.217zm-3.975-.249c.034 0 .034-.06.112-.111.078-.05.196-.07.145-.088a.4.4 0 0 0-.223.016c-.077.048-.069.175-.034.183zM142.602 31.4c.209.032.147.056.075.15-.072.092-.297.31-.681.783-.268.347-1.442 1.858-1.785 2.655-.135.28-.226.58-.268.887v.045a.403.403 0 0 0-.091-.061.248.248 0 0 0-.249.021c-.113.064-.065.133.091.162.155.03.118.175.238.112a.113.113 0 0 0 .073-.107c0-.026 0 0 0 0 .028.04.051.084.067.13a.224.224 0 0 1-.172.266h-.013c-.009.425.054.85.187 1.254.107.335.271.65.486.929.255.144.494.314.713.507a.448.448 0 0 1 .061.513s.132.045.038.244c-.03.064-.153.096-.464.109a3.796 3.796 0 0 1-1.49-.266c-.571-.228-.775-.39-1.016-.93-.241-.538-.445-1.077-.445-1.077h-.362a3.308 3.308 0 0 1-.268-.531 1.135 1.135 0 0 1 0-.824l.03-.066a1.105 1.105 0 0 1 .118-.595c0-.018 0 0 0 0 .034.144.182.22.268.122.087-.113.188-.215.3-.305.163-.104.137-.167.072-.223a.38.38 0 0 0-.292-.045c-.019 0 0 0 0-.016l.142-.13a1.12 1.12 0 0 0 .164-.3c.09-.252.162-.509.214-.77.113-.508.41-1.52.568-1.952a6.35 6.35 0 0 1 .804-1.469c.062-.08.043.027.083.096a.386.386 0 0 0 .108.12c.026.02.193.124.163.183a6.806 6.806 0 0 0-.573.958c-.14.29-.713 1.628-.805 2.42-.091.79.067.345.145.055.078-.29.41-1.139.601-1.593.19-.454.766-1.418.857-1.593.091-.176.129-.114.217-.077.24.09.489.158.743.199.445.043.894.043 1.34 0l.008.01zm-3.961 6.785c.134-.154.085-.388-.108-.635-.193-.246-.372-.337-.386-.53-.013-.194 0-.425-.142-.303 0 0-.053.024-.051.29.003.265.268.53.349.719.08.188.204.616.338.465v-.006zm1.147.754a.314.314 0 0 0-.223-.159c-.144 0-.329.106-.185.218.145.111.365.127.502.212a.425.425 0 0 0 .268.067.16.16 0 0 0 .067 0c.021 0 .016-.024 0-.035a.882.882 0 0 1-.204-.08.587.587 0 0 1-.201-.21l-.024-.013zm-.453-.27c.23 0 .391-.117.185-.162a.497.497 0 0 0-.402.082c-.145.133-.113.202-.054.199.131 0 .121-.12.268-.12h.003zm15.671-21.722c.171-.011.338-.049.496-.112.169-.104.241-.12.349-.191a.302.302 0 0 0 .144-.228c0-.07.035-.093.142-.136a.27.27 0 0 0 .164-.173c.032-.08.051-.146.051-.146s.032-.063.163-.082c.132-.018.301-.08.293-.228a.87.87 0 0 0-.065-.266.235.235 0 0 1-.268.067c-.195-.072-.321-.15-.41-.178-.088-.03-.236-.045-.182.066.053.112.075.162 0 .239a.783.783 0 0 1-.107.07c-.137.058-.175.156-.161.204a.185.185 0 0 1-.051.193c-.072.059-.156.13-.15.213.005.082-.022.125-.113.188-.091.064-.198.075-.536.104a.925.925 0 0 1-.536-.08.156.156 0 0 0-.139.002.15.15 0 0 0-.054.046.159.159 0 0 0-.027.067c0 .087 0 .114.094.127.094.013.102.082-.016.106-.118.024.118.16.233.186h.046c-.536 1.123-7.015 13.809-7.06 13.923a.065.065 0 0 0-.002.05c.005.015.016.029.031.037.014.013.032.02.05.02a.076.076 0 0 0 .05-.02c.061-.087 7.571-14.074 7.571-14.074v.006zm.451-2.064c-.027.093.217-.106.431-.106a.608.608 0 0 1 .231.064l.112-.21a.598.598 0 0 0 .415-.187.583.583 0 0 0-.028-.833.6.6 0 0 0-.427-.159.609.609 0 0 0-.356.117s-.019.018.024 0a.226.226 0 0 1 .163 0c.056.06-.067.08-.072.21a.1.1 0 0 1-.014.065.1.1 0 0 1-.051.043.146.146 0 0 1-.134-.026.15.15 0 0 1-.041-.053.152.152 0 0 1-.015-.067c0-.026 0-.018-.021 0a.59.59 0 0 0 .002.622c-.085.188-.209.47-.227.53l.008-.01zm5.845 21.348c.038 0 .201.08.177.191a3.374 3.374 0 0 1-1.292 1.636c-.536.292-1.34.387-1.753.53l-.243.096.083.407a2.206 2.206 0 0 1-.536.332c-.194.1-.398.178-.609.236l-.351-.372a2.84 2.84 0 0 1-.592-.709 1.262 1.262 0 0 1-.102-.234 1.128 1.128 0 0 1-.056-.148c-.081-.231-.092-.353-.118-.42-.027-.066-.15-.14-.193-.265a.26.26 0 0 1 0-.186c0-.037.034-.072.051-.11.091-.206-.078-.214-.126-.225a.267.267 0 0 1-.092-.06.43.43 0 0 1-.069-.322c-.051-.08-.113-.167-.182-.266l-.121-.151a14.639 14.639 0 0 1-1.383-1.811 6.583 6.583 0 0 1-.834-1.692s.199-.114.268-.148c.07-.035.175 0 .252.122.023.038.041.08.054.122a.381.381 0 0 1 0 .048c.061.264.151.521.268.767.135.35.302.685.498 1.004.394.553.837 1.07 1.325 1.545.214.208-.255-.459-.628-1.03a10.465 10.465 0 0 1-1.104-2.331c0-.022-.016-.043-.021-.062a1.534 1.534 0 0 0-.1-.212.187.187 0 0 0-.091-.069c-.053-.027-.102-.037-.067-.072.035-.034.199-.106.448-.292.327-.265.413-.661.592-1.083.064-.15.135-.294.215-.436-.022-.265.037-.624.077-.53 0 .023.062.19.083.265v.045c.025.085.041.151.041.151.255.978.563 1.941.922 2.887.319.886.7 1.748 1.142 2.58.058.083.122.16.192.232a.538.538 0 0 1 .252.066.166.166 0 0 1 .072.083.168.168 0 0 1 .004.108c.124.071.259.124.399.157.691.173 1.262.266 1.731.128l.158-.056c.022 0 .033-.013 0 0-.021 0-.088.074-.134.117a.994.994 0 0 1-.833.265c-.019 0 0 0 0 .019.228.21.774.05.93-.067.155-.116.104-.103.303-.034.056.021.088.016.104 0 .059-.024.065-.244.102-.417a.667.667 0 0 1 .166-.308.543.543 0 0 1 .563.03.172.172 0 0 1 .134-.054l.024.003zm-4.773 2.082c.053-.038-.054-.075-.051-.42 0 0 .043-.202-.075-.266-.118-.063-.316.024-.298.139.015.12.045.237.089.35.102.226.268.24.335.202v-.005zm1.876-.056c.123-.058.131-.136.102-.128a1.538 1.538 0 0 1-.493.115c-.242 0-.646.02-.764.138-.118.117-.228.462.048.294a1.26 1.26 0 0 1 .552-.265c.19-.035.375-.087.555-.157v.003zm-4.897-6.588c.44-.266.563-.797.692-1.169.115-.344.291-.665.52-.948.04-.05-.054-.313-.11-.435a.118.118 0 0 0-.03-.048.2.2 0 0 0-.069 0c-.038 0-.081 0-.1-.04.04-.144.07-.29.091-.438a2.158 2.158 0 0 0-.072-.733.477.477 0 0 0-.153-.265c-.043-.038 0 .09.024.292.011.25-.037.5-.142.727-.126.25-.268.473-.335.614-.067.14-.026.265.091.286.041 0 .076 0 .089.093.019.125 0 .388-.472.932a4.724 4.724 0 0 1-.632.553.929.929 0 0 1 0 .247.78.78 0 0 1-.11.313.437.437 0 0 1-.073.048c-.23.143 0 .462 0 .462s.188-.096.804-.483l-.013-.008zm-5.669-6.716c.387-.718.851-1.392 1.386-2.01a6.03 6.03 0 0 1 .681-.622c.201-.146-.073-.125-.748.327a3.067 3.067 0 0 0-.804.797 18.376 18.376 0 0 0-1.407 2.477 4.09 4.09 0 0 1-.863 1.208c-.408.35-.834.481-1.072.69a.724.724 0 0 0-.081.075.345.345 0 0 0-.072.09.385.385 0 0 0-.048.2.475.475 0 0 1-.075.353 1.282 1.282 0 0 1-.472.252l-.065.019-.222.058c-.188.027-.292.112-.137.2a.683.683 0 0 0 .188.068c.142.037.182.064.18.128-.003.063-.102.233-.47.345a5.369 5.369 0 0 1-1.433.154 3.414 3.414 0 0 0-.681 0c-.062.032-.04.109.217.189.139.037.49.098.651.154.099.034.072.116-.051.138-.373.04-.75.012-1.112-.085 0 0-.129-.046-.18-.07a.977.977 0 0 1-.38-.329c-.035-.063-.049-.18-.099-.212l-.268.374s-.038.114.166.367c.029-.035.026-.096.053-.141.027-.045.118-.109.175-.03a.274.274 0 0 1 0 .24.256.256 0 0 0-.033.14c.194.137.417.228.652.266.479.097.974.088 1.45-.026.045 0 .238-.048.252 0a.494.494 0 0 1-.054.199c-.04.098-.062.127-.086.188-.024.061.022.064.03.056a.827.827 0 0 0 .198-.162c.072-.066.295-.265.351-.327.196-.175.306-.265.268-.355 0-.016-.027-.115-.032-.146 0-.13.064-.247.268-.39a3.64 3.64 0 0 0 .603-.396c.198-.2.056-.42.225-.609.169-.188.456-.265.536-.409.15-.207.145-.265.298-.51.28-.342.581-.667.903-.971.536-.6.724-1.14 1.196-1.95l.018-.002zm6.208-9.382c-.113.035-.212.104-.174.165.037.06.15.053.364-.043.215-.095.308-.183.209-.188a2.727 2.727 0 0 0-.399.066zm-10.528 5.502c-.587.104-.783.138-.893.162-.989.877-.469 1.694-.15 1.888.214.136-.016-.077.938-1.256.365-.367.764-.699 1.193-.99-.107 0-.579.106-1.088.196zm12.661-6.21c.165.077.324.166.477.265.034.029.067.06.097.093a.21.21 0 0 0 .174-.173c.019-.09-.07-.16-.252-.186-.182-.027-.268-.064-.367-.074a.231.231 0 0 0-.177.047l.048.024" fill="#1D1D1B"/></svg>